<svg width="16" height="16" viewBox="0 0 16 16" fill="none" xmlns="http://www.w3.org/2000/svg">
<g clip-path="url(#clip0_122_10)">
<path fill-rule="evenodd" clip-rule="evenodd" d="M2.50004 8.00004C2.49969 7.04512 2.74797 6.10655 3.22046 5.27671C3.69294 4.44686 4.37334 3.75433 5.19471 3.26726C6.01608 2.78019 6.95011 2.51536 7.9049 2.49884C8.85968 2.48232 9.80232 2.71468 10.64 3.17304C10.7266 3.22417 10.8226 3.25737 10.9222 3.27066C11.0219 3.28395 11.1232 3.27708 11.2202 3.25043C11.3171 3.22379 11.4077 3.17792 11.4866 3.11556C11.5655 3.0532 11.631 2.97562 11.6793 2.88744C11.7275 2.79925 11.7576 2.70225 11.7677 2.60221C11.7777 2.50217 11.7675 2.40113 11.7378 2.3051C11.708 2.20907 11.6592 2.12001 11.5943 2.04321C11.5294 1.96641 11.4498 1.90344 11.36 1.85804C10.0322 1.13082 8.50439 0.853679 7.00573 1.06819C5.50706 1.2827 4.11834 1.9773 3.04782 3.04782C1.9773 4.11834 1.2827 5.50706 1.06819 7.00573C0.853679 8.50439 1.13082 10.0322 1.85804 11.36C1.95704 11.5277 2.11736 11.6503 2.30509 11.7019C2.49282 11.7535 2.69326 11.73 2.86403 11.6365C3.0348 11.543 3.16252 11.3868 3.22019 11.2008C3.27785 11.0149 3.26095 10.8138 3.17304 10.64C2.73086 9.83041 2.49942 8.92256 2.50004 8.00004ZM14.142 4.64004C14.0966 4.55033 14.0337 4.47066 13.9569 4.40578C13.8801 4.34089 13.791 4.2921 13.695 4.26232C13.599 4.23254 13.4979 4.22238 13.3979 4.23243C13.2978 4.24248 13.2008 4.27254 13.1127 4.32082C13.0245 4.36911 12.9469 4.43463 12.8845 4.5135C12.8222 4.59237 12.7763 4.68297 12.7497 4.77992C12.723 4.87687 12.7161 4.97818 12.7294 5.07784C12.7427 5.1775 12.7759 5.27347 12.827 5.36004C13.3985 6.40336 13.6164 7.60384 13.4478 8.78143C13.2793 9.95902 12.7336 11.0502 11.8924 11.8914C11.0512 12.7326 9.96002 13.2783 8.78243 13.4468C7.60484 13.6154 6.40436 13.3975 5.36104 12.826C5.18653 12.7303 4.98113 12.7078 4.79003 12.7635C4.59893 12.8192 4.43779 12.9485 4.34204 13.123C4.2463 13.2976 4.2238 13.503 4.2795 13.6941C4.3352 13.8852 4.46453 14.0463 4.63904 14.142C5.96688 14.8693 7.4947 15.1464 8.99336 14.9319C10.492 14.7174 11.8808 14.0228 12.9513 12.9523C14.0218 11.8818 14.7164 10.493 14.9309 8.99436C15.1454 7.4957 14.8683 5.96788 14.141 4.64004M9.50004 8.00004C9.50004 8.39787 9.34201 8.7794 9.0607 9.0607C8.7794 9.34201 8.39787 9.50004 8.00004 9.50004C7.60222 9.50004 7.22069 9.34201 6.93938 9.0607C6.65808 8.7794 6.50004 8.39787 6.50004 8.00004C6.50004 7.60222 6.65808 7.22069 6.93938 6.93938C7.22069 6.65808 7.60222 6.50004 8.00004 6.50004C8.39787 6.50004 8.7794 6.65808 9.0607 6.93938C9.34201 7.22069 9.50004 7.60222 9.50004 8.00004ZM11 8.00004C11 8.79569 10.684 9.55876 10.1214 10.1214C9.55876 10.684 8.79569 11 8.00004 11C7.20439 11 6.44133 10.684 5.87872 10.1214C5.31611 9.55876 5.00004 8.79569 5.00004 8.00004C5.00004 7.20439 5.31611 6.44133 5.87872 5.87872C6.44133 5.31611 7.20439 5.00004 8.00004 5.00004C8.79569 5.00004 9.55876 5.31611 10.1214 5.87872C10.684 6.44133 11 7.20439 11 8.00004Z" fill="#F8F8F8"/>
</g>
<defs>
<clipPath id="clip0_122_10">
<rect width="16" height="16" fill="white"/>
</clipPath>
</defs>
</svg>
