<svg width="16" height="16" viewBox="0 0 16 16" fill="none" xmlns="http://www.w3.org/2000/svg">
<g clip-path="url(#clip0_122_8)">
<path d="M11.0637 8.15706C12.3257 8.15706 13.4114 7.03021 13.4114 5.56278C13.4114 4.11306 12.32 3.03906 11.0637 3.03906C9.80771 3.03906 8.716 4.13649 8.716 5.57449C8.716 7.03021 9.80171 8.15706 11.0637 8.15706ZM4.308 8.29221C5.39971 8.29221 6.35086 7.30592 6.35086 6.03221C6.35086 4.77049 5.39371 3.83706 4.308 3.83706C3.21657 3.83706 2.25371 4.79392 2.25971 6.04421C2.25971 7.30592 3.21057 8.29221 4.30829 8.29221M1.03314 13.5922H5.49371C4.88343 12.7059 5.62886 10.9216 6.89086 9.94735C6.23943 9.51306 5.39971 9.19021 4.30229 9.19021C1.65514 9.18992 0 11.1442 0 12.7702C0 13.2988 0.293429 13.5922 1.03314 13.5922ZM7.372 13.5922H14.7497C15.6711 13.5922 16 13.3279 16 12.8113C16 11.2971 14.104 9.20763 11.058 9.20763C8.01771 9.20763 6.12171 11.2971 6.12171 12.8116C6.12171 13.3279 6.45029 13.5922 7.372 13.5922Z" fill="#F8F8F8"/>
</g>
<defs>
<clipPath id="clip0_122_8">
<rect width="16" height="16" fill="white"/>
</clipPath>
</defs>
</svg>
