<svg width="13" height="13" viewBox="0 0 13 13" fill="none" xmlns="http://www.w3.org/2000/svg">
<path fill-rule="evenodd" clip-rule="evenodd" d="M6.145 1.75001C6.32728 1.29905 6.66767 0.929967 7.10244 0.711856C7.5372 0.493745 8.03656 0.441553 8.50703 0.565049C8.97751 0.688545 9.38685 0.979264 9.65845 1.38279C9.93004 1.78632 10.0453 2.27499 9.98256 2.75734C9.91986 3.2397 9.68351 3.68267 9.31777 4.00334C8.95203 4.32401 8.48197 4.50041 7.99555 4.49951C7.50914 4.49861 7.03973 4.32048 6.67518 3.99846C6.31063 3.67643 6.07592 3.23259 6.015 2.75001H3C2.60218 2.75001 2.22064 2.90805 1.93934 3.18935C1.65804 3.47066 1.5 3.85219 1.5 4.25001C1.5 4.64784 1.65804 5.02937 1.93934 5.31067C2.22064 5.59198 2.60218 5.75001 3 5.75001H10C10.663 5.75001 11.2989 6.0134 11.7678 6.48224C12.2366 6.95109 12.5 7.58697 12.5 8.25001C12.5 8.91305 12.2366 9.54894 11.7678 10.0178C11.2989 10.4866 10.663 10.75 10 10.75H4.485C4.42408 11.2326 4.18938 11.6764 3.82482 11.9985C3.46027 12.3205 2.99086 12.4986 2.50445 12.4995C2.01803 12.5004 1.54797 12.324 1.18223 12.0033C0.816486 11.6827 0.580144 11.2397 0.517438 10.7573C0.454732 10.275 0.56996 9.78632 0.841554 9.38279C1.11315 8.97926 1.52249 8.68855 1.99297 8.56505C2.46344 8.44155 2.96279 8.49374 3.39756 8.71186C3.83233 8.92997 4.17272 9.29905 4.355 9.75001H10C10.3978 9.75001 10.7794 9.59198 11.0607 9.31067C11.342 9.02937 11.5 8.64784 11.5 8.25001C11.5 7.85219 11.342 7.47066 11.0607 7.18935C10.7794 6.90805 10.3978 6.75001 10 6.75001H3C2.33696 6.75001 1.70107 6.48662 1.23223 6.01778C0.763392 5.54894 0.5 4.91305 0.5 4.25001C0.5 3.58697 0.763392 2.95109 1.23223 2.48224C1.70107 2.0134 2.33696 1.75001 3 1.75001H6.145Z" fill="#f8f8f8"/>
</svg>
